<svg class="icon-gh" viewBox="0 0 24 24" width="14" height="14" fill="currentColor" aria-hidden="true"><path d="M12 .5C5.65.5.5 5.65.5 12c0 5.08 3.29 9.39 7.86 10.91.58.1.79-.25.79-.56 0-.28-.01-1.01-.02-1.99-3.2.7-3.88-1.54-3.88-1.54-.52-1.33-1.27-1.69-1.27-1.69-1.04-.71.08-.7.08-.7 1.15.08 1.76 1.18 1.76 1.18 1.02 1.75 2.69 1.24 3.35.95.1-.74.4-1.24.72-1.53-2.55-.29-5.24-1.27-5.24-5.66 0-1.25.45-2.27 1.18-3.07-.12-.29-.51-1.45.11-3.02 0 0 .96-.31 3.15 1.17.91-.25 1.89-.38 2.86-.39.97.01 1.95.14 2.86.39 2.18-1.48 3.14-1.17 3.14-1.17.62 1.57.23 2.73.12 3.02.74.8 1.18 1.82 1.18 3.07 0 4.4-2.69 5.36-5.25 5.65.41.36.78 1.06.78 2.14 0 1.55-.01 2.79-.01 3.17 0 .31.21.67.8.56C20.22 21.39 23.5 17.08 23.5 12 23.5 5.65 18.35.5 12 .5z"/></svg>
